# xmcd CD database file
#
# Track frame offsets:
#	182
#	9447
#	22755
#	36405
#	50085
#	62310
#	81167
#	98860
#	113730
#	126047
#	140545
#	155097
#	171735
#	184307
#
# Disc length: 2620 seconds
#
# Revision: 0
# Processed by: cddbd v1.5.2PL0 Copyright (c) Steve Scherf et al.
# Submitted via: CDex 1.70beta2
#
DISCID=bc0a3a0e
DTITLE=Schovanky - Schovanky
DYEAR=1900
DGENRE=Country
TTITLE0=Měl na botách prach
TTITLE1=Schovanky blues
TTITLE2=Nebuď zlej
TTITLE3=Pád
TTITLE4=Žádnej hřích
TTITLE5=Ten blázen čas
TTITLE6=Ďábel v Georgii
TTITLE7=C'est la vie
TTITLE8=Nevolej o pomoc
TTITLE9=Krásné dixie
TTITLE10=Půlnoční seance
TTITLE11=Čekej na můj Jumbo jet
TTITLE12=Apple Jack
TTITLE13=Město stínů Ghetto
EXTD=
EXTT0=
EXTT1=
EXTT2=
EXTT3=
EXTT4=
EXTT5=
EXTT6=
EXTT7=
EXTT8=
EXTT9=
EXTT10=
EXTT11=
EXTT12=
EXTT13=
PLAYORDER=
